<svg xmlns="http://www.w3.org/2000/svg" version="1.1" xmlns:xlink="http://www.w3.org/1999/xlink" xmlns:svgjs="http://svgjs.dev/svgjs" width="2000" height="388" viewBox="0 0 2000 388"><g transform="matrix(1,0,0,1,-1.2106656883015603,15.909759581597541)"><svg viewBox="0 0 396 77" data-background-color="#ffffff" preserveAspectRatio="xMidYMid meet" height="388" width="2000" xmlns="http://www.w3.org/2000/svg" xmlns:xlink="http://www.w3.org/1999/xlink"><g id="tight-bounds" transform="matrix(1,0,0,1,0.23971180628370803,0.24548763380667538)"><svg viewBox="0 0 395.52 76.50902473238664" height="76.50902473238664" width="395.52"><g><svg viewBox="0 0 731.2924775584565 141.46054371998446" height="76.50902473238664" width="395.52"><g transform="matrix(1,0,0,1,335.7724775584565,17.05126518744494)"><svg viewBox="0 0 395.52 107.35801334509458" height="107.35801334509458" width="395.52"><g id="textblocktransform"><svg viewBox="0 0 395.52 107.35801334509458" height="107.35801334509458" width="395.52" id="textblock"><g><svg viewBox="0 0 395.52 107.35801334509458" height="107.35801334509458" width="395.52"><g transform="matrix(1,0,0,1,0,0)"><svg width="395.52" viewBox="3.5 -36 135.0416361382516 36.25" height="107.35801334509458" data-palette-color="#000000"><g transform="matrix(1,0,0,1,0,0)"><g><svg width="4.385572586407226" viewBox="3.16 -36.36 28.68 36.36" height="5.561394834032197" data-palette-color="#000000" id="scriptelement" x="130.91412984504797" y="-8.215417417016099"><path d="M10.85 0L3.16 0 3.16-36.36 17.51-36.36Q21.63-36.36 24.55-34.9 27.47-33.43 29-30.76 30.54-28.09 30.54-24.49L30.54-24.49Q30.54-20.86 28.98-18.26 27.41-15.66 24.46-14.28 21.5-12.89 17.31-12.89L17.31-12.89 7.71-12.89 7.71-19.07 16.07-19.07Q18.27-19.07 19.73-19.67 21.18-20.28 21.9-21.48 22.62-22.69 22.62-24.49L22.62-24.49Q22.62-26.3 21.9-27.54 21.18-28.78 19.72-29.43 18.25-30.08 16.03-30.08L16.03-30.08 10.85-30.08 10.85 0ZM14.51-16.55L22.8-16.55 31.84 0 23.35 0 14.51-16.55Z" opacity="1" transform="matrix(1,0,0,1,0,0)" fill="#ffffff" class="undefined-123" data-fill-palette-color="primary" id="tk-123"></path></svg></g></g><path d="M127.672-5.435C127.672-8.436 130.105-10.869 133.107-10.869 136.108-10.869 138.542-8.436 138.542-5.435 138.542-2.433 136.108 0 133.107 0 130.105 0 127.672-2.433 127.672-5.435ZM133.107-0.553C135.803-0.553 137.989-2.739 137.989-5.435 137.989-8.131 135.803-10.317 133.107-10.317 130.411-10.317 128.225-8.131 128.225-5.435 128.225-2.739 130.411-0.553 133.107-0.553Z" fill="#ffffff" id="scriptcircle" data-fill-palette-color="primary"></path><path d="M37.65 0L3.5 0 3.5-35.75 11.5-35.75 11.5-6.5 37.65-6.5 37.65 0ZM49.45 0L39.65 0 53.05-17.85 39.65-35.75 49.4-35.75 60.15-21.1 64.75-21.1 75.5-35.75 85.25-35.75 71.85-17.85 85.25 0 75.45 0 64.75-14.6 60.15-14.6 49.45 0ZM126.09 0.25L104.15 0.25Q95 0.25 89.87-4.33 84.75-8.9 84.75-17.9L84.75-17.9Q84.75-26.85 89.97-31.43 95.2-36 105.15-36L105.15-36 124.15-36 124.15-29.5 105.7-29.5Q99.15-29.5 96.02-26.75 92.9-24 92.9-17.9L92.9-17.9Q92.9-12.1 95.65-9.33 98.4-6.55 103.7-6.3L103.7-6.3 103.7-20.2 126.09-20.2 126.09 0.25ZM111.2-13.7L111.2-6.25 118.09-6.25 118.09-13.7 111.2-13.7Z" opacity="1" transform="matrix(1,0,0,1,0,0)" fill="#ffffff" class="wordmark-text-0" data-fill-palette-color="primary" id="text-0"></path></svg></g></svg></g></svg></g></svg></g><g><svg viewBox="0 0 310.42782719999997 141.46054371998446" height="141.46054371998446" width="310.42782719999997"><g><svg xmlns="http://www.w3.org/2000/svg" xmlns:xlink="http://www.w3.org/1999/xlink" version="1.1" x="0" y="0" viewBox="5 29.49391886595174 90 41.01258914071542" enable-background="new 0 0 100 100" xml:space="preserve" height="141.46054371998446" width="310.42782719999997" class="icon-icon-0" data-fill-palette-color="accent" id="icon-0"><g fill="#000000" data-fill-palette-color="accent"><path d="M23.943 30.807L5 50.001 23.942 69.193A4.386 4.386 0 0 0 30.2 69.195 4.52 4.52 0 0 0 30.202 62.857L18.193 50.695 14.569 52.984 30.203 37.143A4.5 4.5 0 0 0 31.498 33.975 4.5 4.5 0 0 0 30.201 30.805 4.387 4.387 0 0 0 23.943 30.807" fill="#ffffff" data-fill-palette-color="accent"></path><path d="M76.057 30.808L95 50.001 76.058 69.193A4.386 4.386 0 0 1 69.8 69.195 4.52 4.52 0 0 1 69.798 62.857L81.807 50.696 85.431 52.985 69.796 37.144A4.5 4.5 0 0 1 68.501 33.976 4.5 4.5 0 0 1 69.798 30.806 4.386 4.386 0 0 1 76.057 30.808" fill="#ffffff" data-fill-palette-color="accent"></path><path d="M60.899 32.352A4.5 4.5 0 0 0 58.533 29.876 4.386 4.386 0 0 0 52.708 32.164L38.888 64.226A4.5 4.5 0 0 0 38.84 67.648 4.5 4.5 0 0 0 41.206 70.124 4.386 4.386 0 0 0 47.031 67.836L60.851 35.774A4.5 4.5 0 0 0 60.899 32.352" fill="#ffffff" data-fill-palette-color="accent"></path></g></svg></g></svg></g></svg></g><defs></defs></svg><rect width="395.52" height="76.50902473238664" fill="none" stroke="none" visibility="hidden"></rect></g></svg></g></svg>